<svg xmlns="http://www.w3.org/2000/svg" fill="none" viewBox="0 0 600 120" height="120" width="600">
<path fill="black" d="M237.076 13.4L207.279 49.9L177.482 13.4H157.884L197.28 62.4L157.884 110.9H177.582L207.379 74.4L236.676 110.9H256.874L217.078 62.4L256.874 13.4H237.076ZM118.088 110.9H133.886V13.5H118.088V110.9ZM71.9927 84L14.3986 13.4H0V110.8H15.7984V40.2L73.3926 110.8H87.7912V13.4H71.9927V84ZM454.454 84L397.36 13.4H382.961V110.8H398.76V40.2L456.354 110.8H470.753V13.4H454.454V84ZM312.968 13C285.571 13 263.573 35.1 263.573 62.4C263.573 89.3 285.671 111.4 312.968 111.4C340.366 111.4 362.363 89.3 362.363 62.4C362.363 35 340.266 13 312.968 13ZM312.968 95.5C294.77 95.5 279.872 80.6 279.872 62.4C279.872 43.7 294.77 28.8 312.968 28.8C331.667 28.8 346.565 43.7 346.565 62.4C346.565 80.6 331.667 95.5 312.968 95.5ZM563.943 0C563.943 9.6 563.943 48.5 563.443 61.4C563.443 68.6 565.843 72 569.643 75.3C577.342 82 581.141 84.9 584.541 89.2C591.74 98.8 576.842 110.8 559.144 110.8C541.845 110.8 526.547 98.8 533.746 89.2C537.146 84.9 540.945 82 548.645 75.3C552.444 71.9 554.844 68.6 554.844 61.4C554.844 48.4 554.844 9.6 554.844 0C554.844 0 501.049 64.3 524.647 104.2C530.447 113.8 541.945 120 559.244 120C576.542 120 588.041 113.8 594.24 104.2C617.238 64.3 563.943 0 563.943 0Z"></path>
</svg>
